<svg width="422" height="91" viewBox="0 0 422 91" fill="none" xmlns="http://www.w3.org/2000/svg">
<path d="M0 71.9156V1.14001H27.1702C32.0469 1.14001 36.3536 1.995 40.0903 3.70502C43.8904 5.41503 46.867 7.94842 49.0204 11.3051C51.1737 14.6618 52.2504 18.8101 52.2504 23.7502C52.2504 28.5636 51.1421 32.6486 48.9254 36.0053C46.7721 39.362 43.7954 41.927 39.9953 43.7004C36.2586 45.4104 31.9836 46.2654 27.1702 46.2654H14.7251V71.9156H0ZM14.7251 33.4402H27.2652C29.3552 33.4402 31.1603 33.0286 32.6803 32.2053C34.2003 31.3819 35.372 30.2419 36.1953 28.7852C37.082 27.3285 37.5253 25.6502 37.5253 23.7502C37.5253 21.7868 37.082 20.0768 36.1953 18.6201C35.372 17.1634 34.2003 16.0235 32.6803 15.2001C31.1603 14.3768 29.3552 13.9651 27.2652 13.9651H14.7251V33.4402Z" fill="white"/>
<path d="M60.6498 71.9156V20.0452H73.95V32.4902L72.9999 30.6852C74.1399 26.3152 76.0083 23.3702 78.605 21.8502C81.265 20.2668 84.4 19.4752 88.0101 19.4752H91.0501V31.8253H86.5851C83.1017 31.8253 80.2834 32.9019 78.13 35.0553C75.9767 37.1453 74.9 40.122 74.9 43.9854V71.9156H60.6498Z" fill="white"/>
<path d="M123.041 73.0556C117.911 73.0556 113.224 71.8839 108.981 69.5406C104.801 67.1972 101.444 63.9989 98.9106 59.9455C96.4406 55.8288 95.2056 51.1737 95.2056 45.9803C95.2056 40.7236 96.4406 36.0686 98.9106 32.0153C101.444 27.9619 104.801 24.7635 108.981 22.4202C113.224 20.0768 117.911 18.9052 123.041 18.9052C128.171 18.9052 132.826 20.0768 137.006 22.4202C141.186 24.7635 144.511 27.9619 146.981 32.0153C149.514 36.0686 150.781 40.7236 150.781 45.9803C150.781 51.1737 149.514 55.8288 146.981 59.9455C144.511 63.9989 141.186 67.1972 137.006 69.5406C132.826 71.8839 128.171 73.0556 123.041 73.0556ZM123.041 60.2305C125.638 60.2305 127.886 59.6288 129.786 58.4255C131.749 57.2221 133.269 55.5438 134.346 53.3904C135.486 51.2371 136.056 48.767 136.056 45.9803C136.056 43.1937 135.486 40.7554 134.346 38.6653C133.269 36.512 131.749 34.8336 129.786 33.6302C127.886 32.3636 125.638 31.7303 123.041 31.7303C120.444 31.7303 118.164 32.3636 116.201 33.6302C114.237 34.8336 112.686 36.512 111.546 38.6653C110.469 40.7554 109.931 43.1937 109.931 45.9803C109.931 48.767 110.469 51.2371 111.546 53.3904C112.686 55.5438 114.237 57.2221 116.201 58.4255C118.164 59.6288 120.444 60.2305 123.041 60.2305Z" fill="white"/>
<path d="M159.176 90.9158V20.0452H172.476V29.9252L171.241 27.0752C172.951 24.4785 175.263 22.4835 178.176 21.0901C181.153 19.6335 184.541 18.9052 188.341 18.9052C193.281 18.9052 197.746 20.1085 201.736 22.5152C205.726 24.9219 208.893 28.1835 211.236 32.3002C213.58 36.3536 214.752 40.9136 214.752 45.9803C214.752 50.9837 213.58 55.5438 211.236 59.6605C208.956 63.7772 205.821 67.0389 201.831 69.4456C197.841 71.8522 193.313 73.0556 188.246 73.0556C184.7 73.0556 181.406 72.4223 178.366 71.1556C175.39 69.8256 172.983 67.8939 171.146 65.3605L173.426 62.4155V90.9158H159.176ZM186.536 60.2305C189.196 60.2305 191.54 59.6288 193.566 58.4255C195.593 57.2221 197.176 55.5438 198.316 53.3904C199.456 51.2371 200.026 48.767 200.026 45.9803C200.026 43.1937 199.456 40.7554 198.316 38.6653C197.176 36.512 195.593 34.8336 193.566 33.6302C191.54 32.3636 189.196 31.7303 186.536 31.7303C184.003 31.7303 181.723 32.3319 179.696 33.5353C177.733 34.7386 176.181 36.417 175.041 38.5703C173.965 40.7237 173.426 43.1937 173.426 45.9803C173.426 48.767 173.965 51.2371 175.041 53.3904C176.181 55.5438 177.733 57.2221 179.696 58.4255C181.723 59.6288 184.003 60.2305 186.536 60.2305Z" fill="white"/>
<path d="M224.143 71.9156V1.14001H238.868V59.0905H268.793V71.9156H224.143Z" fill="white"/>
<path d="M299.729 71.9156V20.0452H313.029V30.3052L312.269 28.0252C313.472 24.9218 315.404 22.6419 318.064 21.1852C320.788 19.6652 323.954 18.9052 327.564 18.9052C331.491 18.9052 334.911 19.7285 337.824 21.3752C340.801 23.0219 343.113 25.3335 344.759 28.3102C346.406 31.2236 347.229 34.6436 347.229 38.5703V71.9156H332.979V41.6104C332.979 39.5837 332.568 37.842 331.744 36.3853C330.984 34.9286 329.876 33.7886 328.419 32.9653C327.026 32.1419 325.379 31.7303 323.479 31.7303C321.643 31.7303 319.996 32.1419 318.539 32.9653C317.083 33.7886 315.942 34.9286 315.119 36.3853C314.359 37.842 313.979 39.5837 313.979 41.6104V71.9156H299.729Z" fill="white"/>
<path d="M356.6 71.9156V0H370.85V46.0754L365.53 44.3654L388.425 20.0452H406L387.19 40.9453L405.905 71.9156H389.755L374.08 45.6004L382.345 43.5104L366.48 60.8005L370.85 52.5354V71.9156H356.6Z" fill="white"/>
<path fill-rule="evenodd" clip-rule="evenodd" d="M275.051 20.0452V71.9156H289.301V20.0452H275.051Z" fill="white"/>
<path d="M275.051 15.3901V1.14001H289.301V15.3901H275.051Z" fill="#F97315"/>
<path d="M413.75 71.9156V63.1656H422V71.9156H413.75Z" fill="#F97315"/>
</svg>
