<svg width="406" height="889" viewBox="0 0 406 889" fill="none" xmlns="http://www.w3.org/2000/svg">
<path d="M24.3943 170.484L172.285 2.42638C176.09 -1.89681 183.221 0.793977 183.221 6.55276V515.175C183.221 516.854 182.545 518.462 181.345 519.637L83.0752 615.901C81.8759 617.076 81.2 618.685 81.2 620.364V756.195C81.2 759.645 78.4035 762.441 74.9538 762.441H6.24615C2.7965 762.441 0 759.645 0 756.195V235.131C0 211.333 8.67248 188.35 24.3943 170.484Z" fill="#54BD95"/>
<path fill-rule="evenodd" clip-rule="evenodd" d="M320.636 620.307C320.636 618.669 319.99 617.085 318.838 615.921C319.99 617.09 320.636 618.665 320.636 620.307ZM278.645 350.564C279.545 351.675 280.036 353.062 280.036 354.493C280.036 353.065 279.545 351.672 278.645 350.564ZM280.036 379.18C280.036 384.968 272.847 387.641 269.065 383.266C272.842 387.65 280.036 384.968 280.036 379.18Z" fill="#54BD95"/>
<path d="M221.738 106.483V157.368C221.738 158.864 222.276 160.311 223.252 161.445L278.522 225.596C279.499 226.73 280.036 228.177 280.036 229.673V263.036C280.036 268.896 272.693 271.53 268.968 267.007L232.806 223.096C229.081 218.572 221.738 221.206 221.738 227.067V278.23C221.738 279.664 222.231 281.054 223.135 282.167L278.64 350.557L278.645 350.564C279.545 351.672 280.036 353.065 280.036 354.493V379.18C280.036 384.968 272.842 387.65 269.065 383.266L269.058 383.257L232.717 341.076C228.937 336.689 221.738 339.362 221.738 345.153V515.232C221.738 516.877 222.388 518.456 223.545 519.625L318.829 615.913L318.838 615.921C319.99 617.085 320.636 618.669 320.636 620.307V756.195C320.636 759.645 323.432 762.441 326.882 762.441H399.754C403.204 762.441 406 759.645 406 756.195V336.129C406 312.32 397.319 289.327 381.584 271.458L232.672 102.355C228.867 98.0337 221.738 100.725 221.738 106.483Z" fill="white"/>
<path d="M0 869.021V798.245H27.1702C32.0469 798.245 36.3536 799.1 40.0903 800.81C43.8904 802.52 46.8671 805.054 49.0204 808.41C51.1738 811.767 52.2504 815.915 52.2504 820.856C52.2504 825.669 51.1421 829.754 48.9254 833.111C46.7721 836.467 43.7954 839.032 39.9953 840.806C36.2586 842.516 31.9836 843.371 27.1702 843.371H14.7251V869.021H0ZM14.7251 830.546H27.2652C29.3552 830.546 31.1603 830.134 32.6803 829.311C34.2003 828.487 35.372 827.347 36.1953 825.891C37.082 824.434 37.5253 822.756 37.5253 820.856C37.5253 818.892 37.082 817.182 36.1953 815.725C35.372 814.269 34.2003 813.129 32.6803 812.305C31.1603 811.482 29.3552 811.07 27.2652 811.07H14.7251V830.546Z" fill="white"/>
<path d="M60.6498 869.021V817.151H73.95V829.596L72.9999 827.791C74.14 823.421 76.0083 820.476 78.605 818.956C81.265 817.372 84.4 816.581 88.0101 816.581H91.0501V828.931H86.5851C83.1017 828.931 80.2833 830.007 78.13 832.161C75.9766 834.251 74.9 837.227 74.9 841.091V869.021H60.6498Z" fill="white"/>
<path d="M123.041 870.161C117.911 870.161 113.224 868.989 108.981 866.646C104.801 864.303 101.444 861.104 98.9107 857.051C96.4406 852.934 95.2056 848.279 95.2056 843.086C95.2056 837.829 96.4406 833.174 98.9107 829.121C101.444 825.067 104.801 821.869 108.981 819.526C113.224 817.182 117.911 816.01 123.041 816.01C128.171 816.01 132.826 817.182 137.006 819.526C141.186 821.869 144.511 825.067 146.981 829.121C149.514 833.174 150.781 837.829 150.781 843.086C150.781 848.279 149.514 852.934 146.981 857.051C144.511 861.104 141.186 864.303 137.006 866.646C132.826 868.989 128.171 870.161 123.041 870.161ZM123.041 857.336C125.638 857.336 127.886 856.734 129.786 855.531C131.749 854.327 133.269 852.649 134.346 850.496C135.486 848.342 136.056 845.872 136.056 843.086C136.056 840.299 135.486 837.861 134.346 835.771C133.269 833.617 131.749 831.939 129.786 830.736C127.886 829.469 125.638 828.836 123.041 828.836C120.444 828.836 118.164 829.469 116.201 830.736C114.237 831.939 112.686 833.617 111.546 835.771C110.469 837.861 109.931 840.299 109.931 843.086C109.931 845.872 110.469 848.342 111.546 850.496C112.686 852.649 114.237 854.327 116.201 855.531C118.164 856.734 120.444 857.336 123.041 857.336Z" fill="white"/>
<path d="M159.176 888.021V817.151H172.476V827.031L171.241 824.181C172.951 821.584 175.263 819.589 178.176 818.195C181.153 816.739 184.541 816.01 188.341 816.01C193.281 816.01 197.746 817.214 201.736 819.621C205.726 822.027 208.893 825.289 211.236 829.406C213.58 833.459 214.752 838.019 214.752 843.086C214.752 848.089 213.58 852.649 211.236 856.766C208.956 860.883 205.821 864.144 201.831 866.551C197.841 868.958 193.313 870.161 188.246 870.161C184.7 870.161 181.406 869.528 178.366 868.261C175.39 866.931 172.983 864.999 171.146 862.466L173.426 859.521V888.021H159.176ZM186.536 857.336C189.196 857.336 191.54 856.734 193.566 855.531C195.593 854.327 197.176 852.649 198.316 850.496C199.456 848.342 200.026 845.872 200.026 843.086C200.026 840.299 199.456 837.861 198.316 835.771C197.176 833.617 195.593 831.939 193.566 830.736C191.54 829.469 189.196 828.836 186.536 828.836C184.003 828.836 181.723 829.437 179.696 830.641C177.733 831.844 176.181 833.522 175.041 835.676C173.965 837.829 173.426 840.299 173.426 843.086C173.426 845.872 173.965 848.342 175.041 850.496C176.181 852.649 177.733 854.327 179.696 855.531C181.723 856.734 184.003 857.336 186.536 857.336Z" fill="white"/>
<path d="M224.143 869.021V798.245H238.868V856.196H268.793V869.021H224.143Z" fill="white"/>
<path d="M299.729 869.021V817.151H313.029V827.411L312.269 825.131C313.472 822.027 315.404 819.747 318.064 818.291C320.788 816.771 323.954 816.01 327.564 816.01C331.491 816.01 334.911 816.834 337.824 818.481C340.801 820.127 343.113 822.439 344.759 825.416C346.406 828.329 347.229 831.749 347.229 835.676V869.021H332.979V838.716C332.979 836.689 332.568 834.947 331.744 833.491C330.984 832.034 329.876 830.894 328.419 830.071C327.026 829.247 325.379 828.836 323.479 828.836C321.643 828.836 319.996 829.247 318.539 830.071C317.082 830.894 315.942 832.034 315.119 833.491C314.359 834.947 313.979 836.689 313.979 838.716V869.021H299.729Z" fill="white"/>
<path d="M356.6 869.021V797.105H370.85V843.181L365.53 841.471L388.425 817.151H406L387.19 838.051L405.905 869.021H389.755L374.08 842.706L382.345 840.616L366.48 857.906L370.85 849.641V869.021H356.6Z" fill="white"/>
<path fill-rule="evenodd" clip-rule="evenodd" d="M275.051 817.151V869.021H289.301V817.151H275.051Z" fill="white"/>
<path d="M275.051 812.495V798.245H289.301V812.495H275.051Z" fill="#F97315"/>
</svg>
