<svg width="886" height="777" viewBox="0 0 886 777" fill="none" xmlns="http://www.w3.org/2000/svg">
<path d="M24.3943 170.19L172.285 2.13232C176.09 -2.19088 183.221 0.49991 183.221 6.25869V514.881C183.221 516.56 182.545 518.168 181.345 519.343L83.0752 615.607C81.8759 616.782 81.2 618.391 81.2 620.069V755.901C81.2 759.35 78.4035 762.147 74.9538 762.147H6.24615C2.7965 762.147 0 759.35 0 755.901V234.837C0 211.039 8.67248 188.056 24.3943 170.19Z" fill="#54BD95"/>
<path fill-rule="evenodd" clip-rule="evenodd" d="M320.636 620.013C320.636 618.375 319.99 616.791 318.838 615.627C319.99 616.796 320.636 618.371 320.636 620.013ZM278.645 350.269C279.545 351.381 280.036 352.768 280.036 354.199C280.036 352.771 279.545 351.378 278.645 350.269ZM280.036 378.886C280.036 384.674 272.847 387.347 269.065 382.972C272.842 387.356 280.036 384.674 280.036 378.886Z" fill="#54BD95"/>
<path d="M221.738 106.189V157.074C221.738 158.57 222.276 160.017 223.252 161.15L278.522 225.302C279.499 226.436 280.036 227.883 280.036 229.379V262.742C280.036 268.602 272.693 271.236 268.968 266.713L232.806 222.802C229.081 218.278 221.738 220.912 221.738 226.772V277.936C221.738 279.37 222.231 280.76 223.135 281.872L278.64 350.262L278.645 350.269C279.545 351.378 280.036 352.771 280.036 354.199V378.886C280.036 384.674 272.842 387.356 269.065 382.972L269.058 382.963L232.717 340.782C228.937 336.394 221.738 339.068 221.738 344.859V514.938C221.738 516.583 222.388 518.162 223.545 519.331L318.829 615.619L318.838 615.627C319.99 616.791 320.636 618.375 320.636 620.013V755.901C320.636 759.35 323.432 762.147 326.882 762.147H399.754C403.204 762.147 406 759.35 406 755.901V335.835C406 312.026 397.319 289.033 381.584 271.164L232.672 102.061C228.867 97.7397 221.738 100.431 221.738 106.189Z" fill="#273B4A"/>
<path d="M463.5 757.5V686.724H490.67C495.547 686.724 499.854 687.579 503.59 689.289C507.39 690.999 510.367 693.533 512.52 696.889C514.674 700.246 515.75 704.394 515.75 709.334C515.75 714.148 514.642 718.233 512.425 721.59C510.272 724.946 507.295 727.511 503.495 729.285C499.759 730.995 495.484 731.85 490.67 731.85H478.225V757.5H463.5ZM478.225 719.024H490.765C492.855 719.024 494.66 718.613 496.18 717.789C497.7 716.966 498.872 715.826 499.695 714.369C500.582 712.913 501.025 711.234 501.025 709.334C501.025 707.371 500.582 705.661 499.695 704.204C498.872 702.748 497.7 701.608 496.18 700.784C494.66 699.961 492.855 699.549 490.765 699.549H478.225V719.024Z" fill="#273B4A"/>
<path d="M524.15 757.5V705.629H537.45V718.074L536.5 716.269C537.64 711.899 539.508 708.954 542.105 707.434C544.765 705.851 547.9 705.059 551.51 705.059H554.55V717.409H550.085C546.602 717.409 543.783 718.486 541.63 720.64C539.477 722.73 538.4 725.706 538.4 729.57V757.5H524.15Z" fill="#273B4A"/>
<path d="M586.541 758.64C581.411 758.64 576.724 757.468 572.481 755.125C568.301 752.781 564.944 749.583 562.411 745.53C559.941 741.413 558.706 736.758 558.706 731.565C558.706 726.308 559.941 721.653 562.411 717.599C564.944 713.546 568.301 710.348 572.481 708.004C576.724 705.661 581.411 704.489 586.541 704.489C591.671 704.489 596.326 705.661 600.506 708.004C604.686 710.348 608.011 713.546 610.481 717.599C613.014 721.653 614.281 726.308 614.281 731.565C614.281 736.758 613.014 741.413 610.481 745.53C608.011 749.583 604.686 752.781 600.506 755.125C596.326 757.468 591.671 758.64 586.541 758.64ZM586.541 745.815C589.138 745.815 591.386 745.213 593.286 744.01C595.249 742.806 596.769 741.128 597.846 738.975C598.986 736.821 599.556 734.351 599.556 731.565C599.556 728.778 598.986 726.34 597.846 724.25C596.769 722.096 595.249 720.418 593.286 719.214C591.386 717.948 589.138 717.315 586.541 717.315C583.944 717.315 581.664 717.948 579.701 719.214C577.737 720.418 576.186 722.096 575.046 724.25C573.969 726.34 573.431 728.778 573.431 731.565C573.431 734.351 573.969 736.821 575.046 738.975C576.186 741.128 577.737 742.806 579.701 744.01C581.664 745.213 583.944 745.815 586.541 745.815Z" fill="#273B4A"/>
<path d="M622.676 776.5V705.629H635.976V715.509L634.741 712.659C636.451 710.063 638.763 708.068 641.676 706.674C644.653 705.218 648.041 704.489 651.841 704.489C656.781 704.489 661.246 705.693 665.236 708.099C669.226 710.506 672.393 713.768 674.736 717.884C677.08 721.938 678.252 726.498 678.252 731.565C678.252 736.568 677.08 741.128 674.736 745.245C672.456 749.361 669.321 752.623 665.331 755.03C661.341 757.436 656.813 758.64 651.746 758.64C648.2 758.64 644.906 758.006 641.866 756.74C638.89 755.41 636.483 753.478 634.646 750.945L636.926 748V776.5H622.676ZM650.036 745.815C652.696 745.815 655.04 745.213 657.066 744.01C659.093 742.806 660.676 741.128 661.816 738.975C662.956 736.821 663.526 734.351 663.526 731.565C663.526 728.778 662.956 726.34 661.816 724.25C660.676 722.096 659.093 720.418 657.066 719.214C655.04 717.948 652.696 717.315 650.036 717.315C647.503 717.315 645.223 717.916 643.196 719.12C641.233 720.323 639.681 722.001 638.541 724.155C637.465 726.308 636.926 728.778 636.926 731.565C636.926 734.351 637.465 736.821 638.541 738.975C639.681 741.128 641.233 742.806 643.196 744.01C645.223 745.213 647.503 745.815 650.036 745.815Z" fill="#273B4A"/>
<path d="M687.643 757.5V686.724H702.368V744.675H732.293V757.5H687.643Z" fill="#273B4A"/>
<path d="M763.229 757.5V705.629H776.529V715.889L775.769 713.609C776.972 710.506 778.904 708.226 781.564 706.769C784.287 705.249 787.454 704.489 791.064 704.489C794.991 704.489 798.411 705.313 801.324 706.959C804.301 708.606 806.613 710.918 808.259 713.894C809.906 716.808 810.729 720.228 810.729 724.155V757.5H796.479V727.195C796.479 725.168 796.068 723.426 795.244 721.97C794.484 720.513 793.376 719.373 791.919 718.549C790.526 717.726 788.879 717.315 786.979 717.315C785.143 717.315 783.496 717.726 782.039 718.549C780.583 719.373 779.443 720.513 778.619 721.97C777.859 723.426 777.479 725.168 777.479 727.195V757.5H763.229Z" fill="#273B4A"/>
<path d="M820.1 757.5V685.584H834.35V731.66L829.03 729.95L851.925 705.629H869.5L850.69 726.53L869.405 757.5H853.255L837.58 731.185L845.845 729.095L829.98 746.385L834.35 738.12V757.5H820.1Z" fill="#273B4A"/>
<path fill-rule="evenodd" clip-rule="evenodd" d="M738.551 705.629V757.5H752.801V705.629H738.551Z" fill="#273B4A"/>
<path d="M738.551 700.974V686.724H752.801V700.974H738.551Z" fill="#F97315"/>
<path d="M877.25 757.5V748.75H885.5V757.5H877.25Z" fill="#F97315"/>
</svg>
