<svg width="1153" height="388" viewBox="0 0 1153 388" fill="none" xmlns="http://www.w3.org/2000/svg">
<path d="M11.1001 77.4411L78.3944 0.97026C80.1255 -0.996909 83.3702 0.227472 83.3702 2.84787V234.284C83.3702 235.048 83.0627 235.78 82.5169 236.315L37.8014 280.118C37.2557 280.652 36.9482 281.384 36.9482 282.148V343.955C36.9482 345.525 35.6757 346.797 34.106 346.797H2.84217C1.27248 346.797 0 345.525 0 343.955V106.857C0 96.0282 3.94621 85.5705 11.1001 77.4411Z" fill="#54BD95"/>
<path fill-rule="evenodd" clip-rule="evenodd" d="M127.424 172.403C127.424 175.037 124.153 176.253 122.432 174.262C124.151 176.257 127.424 175.037 127.424 172.403Z" fill="#54BD95"/>
<path d="M100.897 48.3187V71.4726C100.897 72.1536 101.141 72.8119 101.586 73.3277L126.735 102.519C127.179 103.034 127.424 103.693 127.424 104.374V119.555C127.424 122.221 124.083 123.42 122.388 121.361L105.933 101.381C104.238 99.3224 100.897 100.521 100.897 103.188V126.468C100.897 127.121 101.121 127.753 101.532 128.259L126.788 159.379L126.791 159.382C127.2 159.888 127.424 160.519 127.424 161.17V172.403C127.424 175.037 124.151 176.257 122.432 174.262L122.428 174.258L105.892 155.065C104.172 153.068 100.897 154.285 100.897 156.92V234.31C100.897 235.059 101.192 235.777 101.719 236.31L145.076 280.123L145.08 280.127C145.604 280.659 145.898 281.375 145.898 282.122V343.955C145.898 345.525 147.17 346.797 148.74 346.797H181.899C183.468 346.797 184.741 345.525 184.741 343.955V152.814C184.741 141.98 180.791 131.518 173.631 123.387L105.872 46.4404C104.141 44.4741 100.897 45.6988 100.897 48.3187Z" fill="white"/>
<path d="M235.816 346.66V192.835H294.869C305.468 192.835 314.828 194.693 322.949 198.41C331.208 202.127 337.678 207.633 342.358 214.928C347.038 222.224 349.378 231.24 349.378 241.977C349.378 252.438 346.97 261.317 342.152 268.612C337.472 275.908 331.002 281.483 322.743 285.337C314.622 289.053 305.33 290.912 294.869 290.912H267.82V346.66H235.816ZM267.82 263.037H295.075C299.618 263.037 303.541 262.142 306.844 260.353C310.148 258.564 312.694 256.086 314.484 252.92C316.411 249.754 317.375 246.106 317.375 241.977C317.375 237.709 316.411 233.993 314.484 230.827C312.694 227.661 310.148 225.183 306.844 223.394C303.541 221.604 299.618 220.709 295.075 220.709H267.82V263.037Z" fill="white"/>
<path d="M367.634 346.66V233.924H396.541V260.972L394.476 257.049C396.954 247.551 401.014 241.151 406.658 237.847C412.439 234.406 419.253 232.685 427.099 232.685H433.706V259.527H424.002C416.431 259.527 410.306 261.867 405.626 266.547C400.945 271.09 398.605 277.559 398.605 285.956V346.66H367.634Z" fill="white"/>
<path d="M503.236 349.138C492.086 349.138 481.9 346.591 472.677 341.498C463.592 336.405 456.297 329.454 450.791 320.644C445.422 311.697 442.738 301.579 442.738 290.292C442.738 278.867 445.422 268.75 450.791 259.94C456.297 251.13 463.592 244.179 472.677 239.086C481.9 233.993 492.086 231.446 503.236 231.446C514.386 231.446 524.503 233.993 533.588 239.086C542.673 244.179 549.9 251.13 555.268 259.94C560.774 268.75 563.527 278.867 563.527 290.292C563.527 301.579 560.774 311.697 555.268 320.644C549.9 329.454 542.673 336.405 533.588 341.498C524.503 346.591 514.386 349.138 503.236 349.138ZM503.236 321.264C508.88 321.264 513.766 319.956 517.896 317.341C522.163 314.725 525.466 311.077 527.807 306.397C530.284 301.717 531.523 296.349 531.523 290.292C531.523 284.235 530.284 278.936 527.807 274.393C525.466 269.713 522.163 266.065 517.896 263.45C513.766 260.697 508.88 259.321 503.236 259.321C497.592 259.321 492.637 260.697 488.37 263.45C484.102 266.065 480.73 269.713 478.252 274.393C475.912 278.936 474.742 284.235 474.742 290.292C474.742 296.349 475.912 301.717 478.252 306.397C480.73 311.077 484.102 314.725 488.37 317.341C492.637 319.956 497.592 321.264 503.236 321.264Z" fill="white"/>
<path d="M581.773 387.956V233.924H610.68V255.398L607.995 249.203C611.712 243.56 616.736 239.224 623.068 236.195C629.538 233.029 636.902 231.446 645.161 231.446C655.898 231.446 665.602 234.062 674.274 239.292C682.946 244.523 689.829 251.612 694.922 260.559C700.015 269.369 702.562 279.28 702.562 290.292C702.562 301.167 700.015 311.077 694.922 320.025C689.967 328.972 683.153 336.061 674.481 341.292C665.809 346.523 655.967 349.138 644.955 349.138C637.246 349.138 630.088 347.761 623.481 345.008C617.012 342.118 611.781 337.919 607.789 332.413L612.744 326.013V387.956H581.773ZM641.238 321.264C647.019 321.264 652.113 319.956 656.517 317.341C660.922 314.725 664.364 311.077 666.841 306.397C669.319 301.717 670.558 296.349 670.558 290.292C670.558 284.235 669.319 278.936 666.841 274.393C664.364 269.713 660.922 266.065 656.517 263.45C652.113 260.697 647.019 259.321 641.238 259.321C635.732 259.321 630.777 260.628 626.372 263.244C622.105 265.859 618.732 269.507 616.255 274.187C613.914 278.867 612.744 284.235 612.744 290.292C612.744 296.349 613.914 301.717 616.255 306.397C618.732 311.077 622.105 314.725 626.372 317.341C630.777 319.956 635.732 321.264 641.238 321.264Z" fill="white"/>
<path d="M722.972 346.66V192.835H754.976V318.786H820.016V346.66H722.972Z" fill="white"/>
<path d="M887.254 346.66V233.924H916.16V256.223L914.509 251.268C917.124 244.523 921.322 239.568 927.104 236.402C933.023 233.098 939.905 231.446 947.751 231.446C956.286 231.446 963.719 233.236 970.051 236.815C976.52 240.394 981.545 245.418 985.124 251.887C988.703 258.219 990.492 265.653 990.492 274.187V346.66H959.52V280.794C959.52 276.389 958.626 272.604 956.836 269.438C955.185 266.272 952.776 263.794 949.61 262.005C946.581 260.215 943.002 259.321 938.873 259.321C934.881 259.321 931.302 260.215 928.136 262.005C924.97 263.794 922.492 266.272 920.703 269.438C919.051 272.604 918.225 276.389 918.225 280.794V346.66H887.254Z" fill="white"/>
<path d="M1010.86 346.66V190.357H1041.83V290.499L1030.27 286.782L1080.03 233.924H1118.23L1077.34 279.349L1118.02 346.66H1082.92L1048.85 289.466L1066.81 284.924L1032.33 322.502L1041.83 304.539V346.66H1010.86Z" fill="white"/>
<path fill-rule="evenodd" clip-rule="evenodd" d="M833.618 233.924V346.66H864.59V233.924H833.618Z" fill="white"/>
<path d="M833.618 223.807V192.835H864.59V223.807H833.618Z" fill="#F97315"/>
<path d="M1135.07 346.66V327.643H1153V346.66H1135.07Z" fill="#F97315"/>
</svg>
